<?xml version="1.0" standalone="no"?>
<!DOCTYPE svg PUBLIC "-//W3C//DTD SVG 20010904//EN"
 "http://www.w3.org/TR/2001/REC-SVG-20010904/DTD/svg10.dtd">
<svg version="1.0" xmlns="http://www.w3.org/2000/svg"
 width="640.000000pt" height="640.000000pt" viewBox="0 0 640.000000 640.000000"
 preserveAspectRatio="xMidYMid meet">

<g transform="translate(0.000000,640.000000) scale(0.100000,-0.100000)"
fill="#000000" stroke="none">
<path d="M3005 5151 c-223 -65 -399 -251 -437 -462 -6 -35 -12 -65 -14 -67 -1
-2 -48 11 -105 28 -120 37 -265 52 -273 29 -3 -8 -17 -187 -31 -399 -14 -212
-41 -617 -60 -900 -19 -283 -37 -548 -41 -587 l-6 -73 1157 0 1156 0 -5 53
c-4 28 -17 205 -31 392 -14 187 -29 390 -34 450 -6 61 -27 334 -47 608 l-38
497 -24 0 c-35 0 -210 -46 -299 -79 -231 -85 -444 -218 -625 -389 l-58 -55
-70 59 c-131 109 -304 233 -362 261 -32 15 -58 33 -58 40 0 25 53 157 85 212
48 82 150 174 221 201 96 35 198 45 286 27 76 -15 178 -54 178 -67 0 -4 -26
-21 -57 -38 -107 -57 -107 -54 -12 -95 46 -19 148 -65 226 -100 l142 -65 5 27
c10 50 67 464 64 466 -2 1 -49 -25 -106 -57 l-103 -60 -47 31 c-77 49 -164 89
-243 111 -94 26 -247 26 -334 1z m995 -683 c1 -6 100 -1362 106 -1455 l7 -103
-911 0 c-501 0 -913 3 -915 8 -3 4 15 338 39 742 24 404 44 745 44 758 0 29
34 29 126 1 182 -56 374 -188 569 -391 l127 -133 142 140 c147 146 258 236
395 319 99 60 268 131 271 114z"/>
<path d="M2814 3555 c19 -93 113 -208 209 -255 80 -39 180 -53 267 -39 83 14
162 51 196 91 23 28 27 30 35 15 11 -18 98 -81 104 -75 3 2 7 30 11 62 l7 58
-50 43 c-27 24 -57 61 -67 84 l-19 40 -29 -44 c-78 -117 -182 -173 -290 -155
-115 18 -190 68 -232 153 l-27 52 -60 0 -60 0 5 -30z"/>
<path d="M1933 2272 c-127 -45 -193 -141 -193 -277 0 -52 6 -75 33 -126 92
-179 309 -214 454 -74 29 28 53 57 53 63 0 27 -62 12 -105 -26 -121 -106 -291
-68 -355 80 -37 87 -19 178 52 248 44 44 86 60 158 60 67 0 119 -21 159 -64
17 -18 35 -26 58 -26 18 0 33 4 33 9 0 4 -18 28 -40 53 -72 83 -203 117 -307
80z"/>
<path d="M3045 2281 c-162 -43 -256 -207 -210 -367 23 -82 107 -165 191 -190
71 -21 164 -15 219 14 48 24 116 94 140 142 24 46 31 148 15 205 -16 59 -87
138 -152 171 -53 27 -151 39 -203 25z m170 -80 c53 -24 111 -90 125 -143 26
-96 -16 -198 -104 -253 -42 -26 -59 -30 -115 -30 -134 1 -231 93 -231 220 0
93 43 165 123 204 54 27 146 28 202 2z"/>
<path d="M3613 2270 c-54 -28 -83 -74 -83 -131 0 -80 42 -123 150 -155 88 -26
127 -86 97 -150 -21 -42 -68 -68 -113 -60 -36 7 -84 56 -84 87 0 15 -7 19 -36
19 -36 0 -36 -1 -30 -31 29 -144 214 -189 303 -73 49 64 40 169 -17 218 -16
13 -60 34 -97 46 -102 33 -132 75 -98 139 16 33 33 41 81 41 40 0 84 -37 84
-70 0 -16 6 -20 36 -20 36 0 36 1 30 33 -20 100 -131 154 -223 107z"/>
<path d="M4665 2277 c-90 -30 -144 -76 -187 -157 -32 -63 -33 -186 0 -247 27
-51 84 -108 137 -136 54 -30 202 -31 255 -3 143 75 209 248 146 381 -61 128
-225 203 -351 162z m180 -76 c22 -10 57 -36 77 -59 164 -182 -60 -456 -280
-343 -78 40 -122 111 -122 196 0 93 43 165 123 204 54 27 146 28 202 2z"/>
<path d="M870 2000 l0 -280 35 0 35 0 2 225 3 225 95 -225 c94 -223 95 -225
124 -223 28 3 33 12 125 225 l96 223 5 -223 5 -222 33 -3 32 -3 0 280 0 281
-47 0 -48 0 -99 -230 c-55 -127 -103 -227 -107 -223 -4 5 -49 108 -99 231
l-93 222 -48 0 -49 0 0 -280z"/>
<path d="M1565 2267 c-3 -7 -4 -131 -3 -277 l3 -265 33 -3 32 -3 0 280 0 281
-30 0 c-17 0 -33 -6 -35 -13z"/>
<path d="M2340 2000 l0 -280 30 0 30 0 0 250 0 250 84 0 c101 0 143 -22 165
-86 13 -37 12 -44 -5 -80 -24 -49 -71 -74 -142 -74 -30 0 -52 -4 -50 -9 2 -4
44 -63 93 -130 87 -117 91 -121 128 -121 20 0 37 2 37 5 0 3 -31 47 -70 99
-38 51 -70 95 -70 98 0 3 13 8 29 11 35 7 87 50 106 88 19 36 19 122 1 157
-40 78 -100 102 -251 102 l-115 0 0 -280z"/>
<path d="M3940 2000 l0 -280 35 0 35 0 0 125 0 125 135 0 135 0 0 -125 0 -125
30 0 30 0 0 280 0 280 -30 0 -30 0 0 -120 0 -120 -135 0 -135 0 0 120 0 120
-35 0 -35 0 0 -280z"/>
<path d="M5140 1999 l0 -280 33 3 32 3 3 108 3 107 84 0 c97 0 128 9 173 53
81 78 55 215 -50 266 -37 18 -63 21 -161 21 l-117 0 0 -281z m246 205 c58 -28
82 -104 48 -152 -26 -38 -67 -52 -149 -52 l-75 0 0 110 0 110 71 0 c45 0 84
-6 105 -16z"/>
<path d="M1598 3 c881 -2 2323 -2 3205 0 881 1 160 2 -1603 2 -1763 0 -2484
-1 -1602 -2z"/>
</g>
</svg>
